<svg xmlns="http://www.w3.org/2000/svg" viewBox="0 0 31 31"><rect class="cls-1" width="31" height="31" rx="5"/><path class="cls-2" d="M7,12.67l7.61,3.45a.85.85,0,0,0,.7,0l7.6-3.45a.73.73,0,0,0,.33-1,.75.75,0,0,0-.33-.33L15.33,7.91a.85.85,0,0,0-.7,0L7,11.36a.73.73,0,0,0-.33,1A.75.75,0,0,0,7,12.67Zm15.91,2.88L21,14.69l-5.28,2.4a1.93,1.93,0,0,1-1.56,0l-5.28-2.4L7,15.55a.74.74,0,0,0,0,1.31l7.62,3.45a.85.85,0,0,0,.7,0l7.6-3.45a.73.73,0,0,0,.33-1,.7.7,0,0,0-.33-.33Zm0,4.18-1.89-.86-5.29,2.4a1.93,1.93,0,0,1-1.56,0l-5.28-2.4L7,19.73a.72.72,0,0,0-.32,1A.68.68,0,0,0,7,21l7.61,3.45a.85.85,0,0,0,.7,0L22.94,21a.73.73,0,0,0,.33-1,.75.75,0,0,0-.33-.33Z"/><path class="cls-2" d="M24,5.89H22.07V4a.42.42,0,0,0-.42-.42h-.42a.42.42,0,0,0-.42.42h0v1.9H18.92a.41.41,0,0,0-.42.42h0v.41a.41.41,0,0,0,.42.42h1.89V9a.42.42,0,0,0,.42.42h.42A.42.42,0,0,0,22.07,9h0V7.15H24a.42.42,0,0,0,.42-.42h0V6.31A.42.42,0,0,0,24,5.89Z"/></svg>