<svg xmlns="http://www.w3.org/2000/svg" viewBox="0 0 18 18"><path class="cls-1" d="M9,0a9,9,0,1,0,9,9A9,9,0,0,0,9,0Z"/><rect class="cls-2" x="6.03" y="5.16" width="8.45" height="10.31" rx="1.08"/><path class="cls-2" d="M11.22,13.88H4.93A1.58,1.58,0,0,1,3.35,12.3V4.15A1.58,1.58,0,0,1,4.93,2.57h6.29A1.58,1.58,0,0,1,12.8,4.15V12.3A1.58,1.58,0,0,1,11.22,13.88ZM4.93,3.57a.58.58,0,0,0-.58.58V12.3a.58.58,0,0,0,.58.58h6.29a.58.58,0,0,0,.58-.58V4.15a.58.58,0,0,0-.58-.58Z"/><rect class="cls-1" x="6.55" y="7.12" width="7.4" height="2.35" rx="0.49"/><rect class="cls-1" x="6.55" y="10.51" width="7.4" height="2.43" rx="0.49"/></svg>