<svg xmlns="http://www.w3.org/2000/svg" viewBox="0 0 18 18"><path class="cls-1" d="M9,0a9,9,0,1,0,9,9h0A9,9,0,0,0,9,0Z"/><path class="cls-2" d="M9.91,11.79a.59.59,0,0,1-.59.57H8v-.59a5,5,0,0,1,.31-1.94A5.34,5.34,0,0,1,9.5,8.2a8.58,8.58,0,0,0,1.21-1.37A1.75,1.75,0,0,0,10.92,6a1.76,1.76,0,0,0-.53-1.32,1.79,1.79,0,0,0-1.32-.52c-1,0-1.68.59-2,1.79a.56.56,0,0,1-.65.4l-.85-.12a.59.59,0,0,1-.51-.65A4.08,4.08,0,0,1,6.2,3.25,3.78,3.78,0,0,1,9,2.13a3.9,3.9,0,0,1,2.86,1.12A3.79,3.79,0,0,1,13,6.05a3.41,3.41,0,0,1-.4,1.62,9.83,9.83,0,0,1-1.71,2.1,3.73,3.73,0,0,0-.84,1.1A3.05,3.05,0,0,0,9.91,11.79Z"/><rect class="cls-2" x="7.97" y="13.26" width="2.13" height="2.61" rx="0.63"/></svg>