<svg xmlns="http://www.w3.org/2000/svg" viewBox="0 0 31 31"><rect class="cls-1" width="31" height="31" rx="5"/><path class="cls-2" d="M21.48,6.8h-12A1.68,1.68,0,0,0,7.89,8.43V22.57A1.68,1.68,0,0,0,9.52,24.2h12a1.68,1.68,0,0,0,1.63-1.63V8.43A1.68,1.68,0,0,0,21.48,6.8ZM12.24,21.59a.46.46,0,0,1-.44.43H10.5a.45.45,0,0,1-.43-.43v-1.3a.46.46,0,0,1,.43-.44h1.3a.47.47,0,0,1,.44.44Zm0-4.35a.46.46,0,0,1-.44.43H10.5a.45.45,0,0,1-.43-.43v-1.3a.47.47,0,0,1,.43-.44h1.3a.47.47,0,0,1,.43.44Zm4.35,4.35a.46.46,0,0,1-.43.43h-1.3a.46.46,0,0,1-.44-.43v-1.3a.47.47,0,0,1,.44-.44h1.3a.47.47,0,0,1,.43.44Zm0-4.35a.46.46,0,0,1-.43.43h-1.3a.46.46,0,0,1-.44-.43v-1.3a.48.48,0,0,1,.43-.44h1.3a.47.47,0,0,1,.43.44Zm4.35,4.35a.46.46,0,0,1-.44.43H19.2a.45.45,0,0,1-.43-.43V15.93a.46.46,0,0,1,.43-.43h1.3a.47.47,0,0,1,.44.43Zm0-8.7a.46.46,0,0,1-.44.43h-10a.45.45,0,0,1-.43-.43V9.41A.45.45,0,0,1,10.5,9h10a.46.46,0,0,1,.44.43Z"/></svg>