<svg xmlns="http://www.w3.org/2000/svg" viewBox="0 0 31 31"><rect class="cls-1" width="31" height="31" rx="5"/><path class="cls-2" d="M9.87,13l5.38,2.45a.6.6,0,0,0,.49,0L21.13,13a.51.51,0,0,0,0-.92L15.74,9.64a.6.6,0,0,0-.49,0L9.87,12.08a.52.52,0,0,0-.23.7.51.51,0,0,0,.23.23Zm11.26,2-1.35-.6-3.73,1.69a1.32,1.32,0,0,1-1.1,0l-3.74-1.69L9.87,15a.51.51,0,0,0,0,.93l5.38,2.44a.6.6,0,0,0,.49,0L21.13,16a.52.52,0,0,0,.23-.69.53.53,0,0,0-.23-.24Zm0,3-1.34-.61-3.74,1.69a1.32,1.32,0,0,1-1.1,0l-3.74-1.7L9.87,18a.52.52,0,0,0-.24.69.53.53,0,0,0,.24.23l5.38,2.44a.6.6,0,0,0,.49,0l5.39-2.44a.51.51,0,0,0,0-.92Z"/><path class="cls-2" d="M12.76,26.56l-.32-.32a.34.34,0,0,1,0-.49h0l2.81-2.82a.36.36,0,0,1,.49,0h0l2.82,2.82a.36.36,0,0,1,0,.49h0l-.32.32a.35.35,0,0,1-.5,0h0l-1.66-1.74V29a.35.35,0,0,1-.35.35h-.46a.34.34,0,0,1-.35-.35h0V24.81l-1.66,1.74a.35.35,0,0,1-.49,0Z"/><path class="cls-2" d="M12.76,3.87l-.32.32a.34.34,0,0,0,0,.49h0L15.25,7.5a.36.36,0,0,0,.49,0h0l2.82-2.82a.36.36,0,0,0,0-.49h0l-.32-.32a.35.35,0,0,0-.5,0h0L16.08,5.62V1.46a.35.35,0,0,0-.35-.35h-.46a.34.34,0,0,0-.35.35h0V5.62L13.26,3.87a.36.36,0,0,0-.49,0Z"/></svg>