<svg xmlns="http://www.w3.org/2000/svg" viewBox="0 0 31 31"><rect class="cls-1" width="31" height="31" rx="5"/><path class="cls-2" d="M10.08,5.43a6.66,6.66,0,0,0-6.66,6.66h0c0,5,6.66,12.37,6.66,12.37s6.66-7.38,6.66-12.37a6.66,6.66,0,0,0-6.65-6.67Z"/><path class="cls-1" d="M8.49,16.42h.38V13.69H8.49a.38.38,0,0,1-.37-.38h0v-.9A.38.38,0,0,1,8.49,12h2.13a.37.37,0,0,1,.37.38h0v4h.38a.38.38,0,0,1,.38.38h0v.9a.38.38,0,0,1-.38.38H8.49a.38.38,0,0,1-.37-.38v-.91A.38.38,0,0,1,8.49,16.42Zm1.44-8A1.37,1.37,0,1,0,11.3,9.76,1.36,1.36,0,0,0,9.93,8.39Z"/><path class="cls-2" d="M19.48,23.64h-.79a.61.61,0,0,1-.61-.6h0V16.1a.6.6,0,0,1,.6-.6h6.94a.61.61,0,0,1,.61.6h0v.8a.61.61,0,0,1-.61.6h0l-4.2-.1,5.13,5.13a.61.61,0,0,1,0,.85h0L26,24a.6.6,0,0,1-.86,0h0L20,18.83,20.09,23a.61.61,0,0,1-.59.62Z"/><polygon class="cls-2" points="19.97 17.21 26.08 17.35 20.02 23.32 19.97 17.21"/><rect class="cls-2" x="23.48" y="18.64" width="1.78" height="5.68" rx="0.89" transform="translate(-8.06 23.52) rotate(-45)"/></svg>