<svg xmlns="http://www.w3.org/2000/svg" viewBox="0 0 31 31"><rect class="cls-1" width="31" height="31" rx="5"/><path class="cls-2" d="M24.17,22a2.16,2.16,0,0,0,2.16-2.16V9a2.17,2.17,0,0,0-2.17-2.17H6.83A2.17,2.17,0,0,0,4.66,9V19.84A2.17,2.17,0,0,0,6.83,22H2.49v2.17h26V22ZM6.83,9H24.17V19.84H6.83Z"/><rect class="cls-2" x="12.39" y="14.93" width="4.28" height="1.13"/><polygon class="cls-2" points="11.37 12.75 8.04 11.32 8.05 10.16 12.41 12.03 11.37 12.75"/><polygon class="cls-2" points="8.03 15.07 12.4 13.2 12.42 12.03 8.03 13.91 8.03 15.07"/></svg>