<svg xmlns="http://www.w3.org/2000/svg" viewBox="0 0 18 18"><path class="cls-g" d="M9,0a9,9,0,1,0,9,9A9,9,0,0,0,9,0Z"/><polygon class="cls-w" points="11.5 4.97 10.07 4.97 10.07 2.42 7.93 2.42 7.93 4.97 6.5 4.97 9 7.94 11.5 4.97"/><path class="cls-w" d="M6.87,10.39a2.87,2.87,0,0,0-1.6,2.26,3.33,3.33,0,0,0,.42,2s1,.1,1.22-2.07c0,0,.29,2.07.89,2.07s.88-1.61.88-2.06c0,0,.26,2.06.85,2.06s1.07-1.05,1.22-2.24c0,0,.28,2.24,1.31,2.24,0,0,.8-.32.81-2.16a.2.2,0,0,0,0-.07,3.32,3.32,0,0,0-2.68-2.09s-1.61-.1-1.95,2.19C8.23,12.51,7.9,10.34,6.87,10.39Z"/><path class="cls-w" d="M9.33,16.4a8.82,8.82,0,0,1-4.14-1A2.67,2.67,0,0,1,3.6,13,4,4,0,0,1,6.06,9.68a7.29,7.29,0,0,1,7,.45,3.21,3.21,0,0,1,1.33,2.61,2.24,2.24,0,0,1-1.12,1.84,1.11,1.11,0,0,1-1,.14l-.15,0a.32.32,0,0,1-.25-.37.33.33,0,0,1,.38-.25l.17,0a.48.48,0,0,0,.5-.06,1.61,1.61,0,0,0,.82-1.33,2.6,2.6,0,0,0-1.08-2.07,6.58,6.58,0,0,0-6.33-.39A3.35,3.35,0,0,0,4.23,13a2.07,2.07,0,0,0,1.26,1.84,8.44,8.44,0,0,0,7.78,0,.31.31,0,0,1,.42.15.33.33,0,0,1-.15.42A9.92,9.92,0,0,1,9.33,16.4Z"/></svg>