<svg xmlns="http://www.w3.org/2000/svg" viewBox="0 0 31 31"><rect class="cls-1" width="31" height="31" rx="5"/><g><path class="cls-2" d="M24.8,22.56V8.45a2.05,2.05,0,0,0-2.07-2H8.27a2.05,2.05,0,0,0-2.07,2V22.56a2,2,0,0,0,2.07,2H22.73A2,2,0,0,0,24.8,22.56ZM11.88,17l2.59,3,3.61-4.55,4.65,6H8.27Z"/><path class="cls-1" d="M9.63,11.21A2.2,2.2,0,0,1,11.83,9h2.79V7.66H11.83a3.55,3.55,0,1,0,0,7.09h2.79V13.4H11.83A2.2,2.2,0,0,1,9.63,11.21Zm2.71.69h6.08V10.51H12.34Zm6.59-4.24H16.14V9h2.79a2.2,2.2,0,1,1,0,4.39H16.14v1.35h2.79a3.55,3.55,0,1,0,0-7.09Z"/></g></svg>