<svg xmlns="http://www.w3.org/2000/svg" viewBox="0 0 31 31"><rect class="cls-1" width="31" height="31" rx="5"/><path class="cls-2" d="M10.61,5.56a1.87,1.87,0,0,1,1.87-1.87h2.37V2.54H12.48a3,3,0,0,0,0,6h2.37V7.43H12.48A1.88,1.88,0,0,1,10.61,5.56Zm2.3.59h5.18V5H12.91Zm5.61-3.61H16.15V3.69h2.37a1.87,1.87,0,1,1,0,3.74H16.15V8.57h2.37a3,3,0,0,0,0-6Z"/><rect class="cls-2" x="4.25" y="13.46" width="22.5" height="15.61" rx="1"/><rect class="cls-1" x="5.21" y="14.61" width="20.44" height="3.4" rx="0.5"/><rect class="cls-1" x="5.21" y="19.58" width="20.44" height="3.4" rx="0.5"/><rect class="cls-1" x="5.21" y="24.55" width="20.44" height="3.4" rx="0.5"/><rect class="cls-2" x="6.35" y="15.72" width="6.12" height="1.35" rx="0.49"/><rect class="cls-2" x="6.35" y="20.41" width="6.12" height="1.35" rx="0.49"/><rect class="cls-2" x="6.35" y="25.57" width="6.12" height="1.35" rx="0.49"/><circle class="cls-2" cx="22.84" cy="16.39" r="0.97"/><circle class="cls-2" cx="22.84" cy="21.09" r="0.97"/><circle class="cls-2" cx="22.84" cy="26.25" r="0.97"/><circle class="cls-2" cx="20.02" cy="21.09" r="0.97"/><circle class="cls-2" cx="20.02" cy="26.25" r="0.97"/><polygon class="cls-2" points="22.82 10.62 7.84 10.59 4.61 13.82 26.45 13.88 22.82 10.62"/></svg>