<svg xmlns="http://www.w3.org/2000/svg" viewBox="0 0 31 31"><rect class="cls-1" width="31" height="31" rx="5"/><rect class="cls-1" x="6.83" y="13" width="17.34" height="10.84"/><g><g><path class="cls-2" d="M12.06,18.87c0-.15,0-.3.06-.46a3.17,3.17,0,0,1,.35-1,.54.54,0,0,1,.58-.3.55.55,0,0,1,.44.42.64.64,0,0,1-.09.45,2.17,2.17,0,0,0-.24.86,2.28,2.28,0,0,0,.87,2,2.34,2.34,0,0,0,3.29-.33,2.37,2.37,0,0,0,.47-1A2.33,2.33,0,0,0,16,16.73l-.09,0a2,2,0,0,0-.42,0l.33.35a.5.5,0,0,1,.15.46.5.5,0,0,1-.79.3c-.11-.1-.22-.2-.32-.31l-1.32-1.33,0,0,1.51-1.5a1.94,1.94,0,0,1,.29-.21h.22l.09,0a.48.48,0,0,1,.26.64.29.29,0,0,1-.07.12c-.1.13-.22.24-.33.36l.38,0a3.42,3.42,0,0,1,2.92,2.7c0,.17.05.34.07.52v.36a3.4,3.4,0,0,1-.08.53,3.35,3.35,0,0,1-2.52,2.61,4.91,4.91,0,0,1-.5.1H15.2l-.3,0a3.46,3.46,0,0,1-2.79-2.82c0-.14,0-.3,0-.44Z"/></g></g><polygon class="cls-2" points="15.5 3.32 6.61 10.56 24.39 10.56 15.5 3.32"/><rect class="cls-2" x="-1.49" y="6.48" width="20.37" height="2.24" rx="1.12" transform="translate(-2.85 7.66) rotate(-41.46)"/><rect class="cls-2" x="12.12" y="6.48" width="20.37" height="2.24" rx="1.12" transform="translate(33.98 28.06) rotate(-138.54)"/><path class="cls-2" d="M28.51,27.93h-26V25.76h26ZM26.34,10.56H24.17v15.2h2.17Zm-19.51,0H4.66v15.2H6.83Zm18,13.08H5.46v2.12H24.85ZM6.2,12.8h18V10.56H6.2Z"/></svg>