<svg xmlns="http://www.w3.org/2000/svg" viewBox="0 0 31 31"><rect class="cls-1" width="31" height="31" rx="5"/><path id="Path_20" data-name="Path 20" class="cls-2" d="M9.92,19.52c0-.24.06-.49.1-.74a5.3,5.3,0,0,1,.57-1.65.86.86,0,0,1,.94-.49.89.89,0,0,1,.72.68,1.11,1.11,0,0,1-.15.73,3.7,3.7,0,0,0-.39,1.39,3.66,3.66,0,0,0,1.41,3.25,3.78,3.78,0,0,0,5.33-.53,3.89,3.89,0,0,0,.76-1.57,3.79,3.79,0,0,0-2.85-4.54l-.15,0a3.78,3.78,0,0,0-.67-.05c.18.19.35.38.53.56a.82.82,0,0,1,.24.75.81.81,0,0,1-1.28.49l-.52-.5L12.38,15.1l0-.06,2.44-2.43a4.07,4.07,0,0,1,.48-.33h.35l.14.07a.79.79,0,0,1,.44,1,.82.82,0,0,1-.12.2c-.17.2-.35.38-.54.58l.62.07A5.56,5.56,0,0,1,21,18.61c.06.28.09.56.13.84V20a8.1,8.1,0,0,1-.13.86,5.49,5.49,0,0,1-4.1,4.24c-.26.07-.53.1-.8.16H15l-.49-.07A5.58,5.58,0,0,1,10,20.66c0-.24-.07-.49-.1-.72Z"/><polygon class="cls-2" points="15.41 2.58 6.52 9.82 24.3 9.82 15.41 2.58"/><rect class="cls-2" x="-1.49" y="6.48" width="20.37" height="2.24" rx="1.12" transform="translate(-2.85 7.66) rotate(-41.46)"/><rect class="cls-2" x="12.12" y="6.48" width="20.37" height="2.24" rx="1.12" transform="translate(33.98 28.06) rotate(-138.54)"/><rect class="cls-2" x="24.17" y="10.56" width="2.17" height="17.46"/><rect class="cls-2" x="4.66" y="10.56" width="2.16" height="17.46"/><rect class="cls-2" x="5.46" y="25.89" width="19.38" height="2.12"/><rect class="cls-2" x="6.52" y="9.44" width="17.97" height="2.24"/><rect class="cls-2" x="3.8" y="27.01" width="23.41" height="1.62"/></svg>