<svg xmlns="http://www.w3.org/2000/svg" viewBox="0 0 30 20"><defs><style>.flag-5{fill:#012169;}.flag-6{fill:#fff;}.flag-7{fill:#c8102e;}.flag-8{fill:none;}</style></defs><path class="flag-5" d="M0,0V20H30V0Z"/><path d="M0,0,30,20M30,0,0,20"/><polygon class="flag-6" points="29.04 21.44 15 12.08 0.96 21.44 -0.96 18.56 11.88 10 -0.96 1.44 0.96 -1.44 15 7.92 29.04 -1.44 30.96 1.44 18.12 10 30.96 18.56 29.04 21.44"/><path d="M0,0,30,20M30,0,0,20"/><polygon class="flag-7" points="29.36 20.96 15 11.39 0.64 20.96 -0.64 19.04 12.92 10 -0.64 0.96 0.64 -0.96 15 8.61 29.36 -0.96 30.64 0.96 17.08 10 30.64 19.04 29.36 20.96"/><polygon class="flag-8" points="15 10 30 10 30 20 15 20 0 20 0 10 0 0 15 0 30 0 15 10"/><path d="M15,0V20M0,10H30"/><polygon class="flag-6" points="17.89 20 12.11 20 12.11 12.89 0 12.89 0 7.11 12.11 7.11 12.11 0 17.89 0 17.89 7.11 30 7.11 30 12.89 17.89 12.89 17.89 20"/><path d="M15,0V20M0,10H30"/><polygon class="flag-7" points="16.73 20 13.27 20 13.27 11.73 0 11.73 0 8.27 13.27 8.27 13.27 0 16.73 0 16.73 8.27 30 8.27 30 11.73 16.73 11.73 16.73 20"/><rect class="flag-8" width="30" height="20"/></svg>