<svg xmlns="http://www.w3.org/2000/svg" viewBox="0 0 31 31"><rect class="cls-1" width="31" height="31" rx="5"/><path class="cls-2" d="M19,25l.36.36a.38.38,0,0,1,0,.55h0l-3.17,3.17a.38.38,0,0,1-.55,0h0l-3.18-3.17a.39.39,0,0,1,0-.55h0l.37-.36a.39.39,0,0,1,.55,0h0l1.87,2v-4.7a.39.39,0,0,1,.39-.39h.52a.39.39,0,0,1,.4.39h0V27l1.87-2A.38.38,0,0,1,19,25Z"/><path class="cls-2" d="M10.68,5.55S6.89,7.41,6.89,10.91s1,4.72,1,4.72,2.41.23,2.9-4.9c0,0,.68,4.9,2.11,4.9S15,11.81,15,10.75c0,0,.61,4.88,2,4.88s2.52-2.49,2.87-5.32c0,0,.68,5.31,3.12,5.31,0,0,1.89-.74,1.92-5.12a.4.4,0,0,0,0-.15c-.23-.6-2-4.62-6.36-5,0,0-3.82-.24-4.61,5.2C13.91,10.58,13.13,5.42,10.68,5.55Z"/><path class="cls-2" d="M16.52,19.8A20.91,20.91,0,0,1,6.7,17.36a6.32,6.32,0,0,1-3.78-5.72c0-3,2.26-6,5.83-7.77,5-2.52,12.48-2,16.59,1.07a7.66,7.66,0,0,1,3.15,6.19,5.33,5.33,0,0,1-2.66,4.36,2.58,2.58,0,0,1-2.32.32l-.36-.08a.74.74,0,0,1-.58-.89.74.74,0,0,1,.88-.58l.4.09a1.2,1.2,0,0,0,1.2-.14A3.81,3.81,0,0,0,27,11.06a6.11,6.11,0,0,0-2.56-4.92c-3.7-2.8-10.43-3.22-15-.93-3.06,1.53-5,4-5,6.45A4.9,4.9,0,0,0,7.4,16c5.77,3,12.14,3.07,18.44.09a.75.75,0,0,1,.65,1.35A23.21,23.21,0,0,1,16.52,19.8Z"/></svg>