<svg id="Layer_1" data-name="Layer 1" xmlns="http://www.w3.org/2000/svg" viewBox="0 0 31 31"><defs><style>.cls-1{fill:#223b74;}.cls-2{fill:#f8de08;}.a6d55bde-0a5b-471e-bb39-77d9b4273b38{fill:none;}.bf557598-3280-4b7d-b68d-27588fb4986d{fill:#d1c6de;}.bb2afeb3-c03b-42a1-becf-e61531584ab1{fill:#97b9b0;}.f6e3cf20-b88e-4092-ad4e-3ac9d6b61af8{fill:#bdc89d;}.bbf547f6-052b-4cdd-93e5-d7e6e915a5f2{fill:#d36e50;}.e5584dd2-a549-42fa-96c6-4751c7865501{fill:#92bb71;}.be35449e-4eb6-4adc-9f97-f91b0740a9ba{fill:#b4823b;}.ed8d6dc4-fa4c-46d9-bc7d-a9ce8814e4e0{fill:#faccad;}.b1674eed-4818-4750-9ee2-0ab8bd7bd56a{fill:#ad8e87;}.ba148858-627b-4054-ade8-e51dec3a07f4{fill:#dc8280;}.b8d54890-8d8d-42c9-aa7b-fc33aff5f83c{fill:#948f9a;}.e2de73de-0f25-491d-b10c-e35df3737674{fill:#0070b2;}.b9dc3187-7aaa-45e4-b6f6-3006718f4b77{fill:#db3f57;}.b3111019-8e70-4b01-a99e-2a582b3ece96{fill:#006ead;}.a06a0a47-bbdc-49f7-bc73-73bed37870dc{fill:#42a5ab;}.e2e0a5ad-079a-4320-ad8d-30b429df1665{fill:#454084;}.e1c10016-7f2d-4f5d-968b-e1915879c19f{fill:#9b6193;}.b28105c1-6b89-4328-8aef-f8cbd22f4522{fill:#728b9a;}.a0eeefa3-2fdf-4be3-a698-67d2cb30ef88{fill:#e5c700;}.b6d9a16e-2e24-4e0d-aee8-b6c04ece6e9d{fill:#dfe7c8;}.b247657b-3a2d-43a4-b644-5d5c8a9189ce{fill:#008943;}.f6368026-d246-45f7-bfc8-be5bc6e7a356{fill:#ffe38c;}.b0eb3997-908b-4c22-8fd9-bc52a75cf6bf{fill:#c1d2a7;}.b8922c25-39e4-4530-ba3c-43c32151472c{fill:#9ac21c;}.a6503543-b277-4d49-b95c-8ff3cb4b18d0{fill:#3b8059;}.fb41a445-1736-471d-ae73-0ebedde079c8{fill:#d6472d;}.b659d9b7-5067-4899-9430-df66fbd1845d{fill:#9a7770;}.b7960b7a-dc72-48ed-95c8-251dbd5b57b2{fill:#0077bc;}.b71560f7-9800-4391-87e9-515e70dc2073{fill:#a6c083;}.eba269dd-8320-49c0-bf53-0f6b2a0b2530{fill:#704e8b;}.fd26e119-4994-4be7-9426-6420c4f19046{fill:#008a9f;}.e62bed78-851d-4959-9cb1-3a686220c06d{fill:#92c6e5;}.a77afa7d-92f5-40a7-b151-8d632529fa89{fill:#87b1b4;}.bfae27d3-703c-42da-af59-242d04f442ff{fill:#e40074;}.b38db5c5-e510-43ee-822a-2cd656ae353d{fill:#db9d65;}.f5875d3e-4132-4a93-9fc8-e149edec0fd3{fill:#623e3b;}.f6942a06-ec0c-42a5-8952-1efcbe34fe65{fill:#6a475b;}.a8b929cc-e591-415f-b371-b05ee131bc7d{fill:#bc7a2b;}.b9d4fc38-8461-42c1-81b4-56c5731777e6{fill:#6f064f;}.a59ea50d-e989-4f42-a1e0-7e0aca5e5f30{fill:#cb9673;}.a4928f3b-5b27-401d-871a-7e4c93457071{fill:#86c3b7;}</style></defs><rect id="Rectangle_8" data-name="Rectangle 8" class="cls-1" x="0.11" width="31" height="31" rx="5"/><path id="Icon awsome-arrow-down" data-name="Icon awesome-arrow-down" class="cls-2" d="M19.11,25l.37.36a.39.39,0,0,1,0,.54h0l-3.17,3.17a.38.38,0,0,1-.54,0h0l-3.19-3.17a.39.39,0,0,1,0-.55h0l.37-.36a.39.39,0,0,1,.55,0h0l1.87,2V22.3a.39.39,0,0,1,.4-.39h.51a.38.38,0,0,1,.4.38h0V27l1.88-2a.38.38,0,0,1,.53,0Z"/><path class="a6d55bde-0a5b-471e-bb39-77d9b4273b38" d="M7.92,13s0,.06,0,.14l0,0A.94.94,0,0,1,7.92,13Z"/><path class="bf557598-3280-4b7d-b68d-27588fb4986d" d="M9,18.62l.08,0L9,18.49A.69.69,0,0,1,9,18.62Z"/><path class="bb2afeb3-c03b-42a1-becf-e61531584ab1" d="M24.31,7.5a1,1,0,0,0,.17.83c1,.3,1.92.64,2.9.91l0-.05A14.55,14.55,0,0,0,25,6.9,1.57,1.57,0,0,0,24.31,7.5Z"/><path class="f6e3cf20-b88e-4092-ad4e-3ac9d6b61af8" d="M7.46,5.72a15.37,15.37,0,0,0,1.6,1.73,1,1,0,0,0,.55-.31c.14-.15.36-.13.52-.23l.25-.18C9.06,5,7.75,5.18,7.75,5.18l-.09.05a.7.7,0,0,1-.2.3S7.52,5.61,7.46,5.72Z"/><path class="bbf547f6-052b-4cdd-93e5-d7e6e915a5f2" d="M10.65,8c.08.12.17.17.61.2a7.64,7.64,0,0,0-.79-1.36l-.86.46C9.56,7.55,9.51,7.83,10.65,8Z"/><path class="e5584dd2-a549-42fa-96c6-4751c7865501" d="M28.74,13.17c.29.23.53.42.74.57,0-.12,0-.24,0-.36a3.31,3.31,0,0,0-.13-.84C29.16,12.76,29,13,28.74,13.17Z"/><path class="be35449e-4eb6-4adc-9f97-f91b0740a9ba" d="M5.45,8.69s1.13-.12,2-.28A5.87,5.87,0,0,0,8.71,8s0,0,.33-.39c0,0,0,0,.05,0A19.64,19.64,0,0,1,7.32,5.84,2.14,2.14,0,0,0,7,5.54,10.8,10.8,0,0,0,4.29,7.6a6,6,0,0,1,.09,1Z"/><path class="ed8d6dc4-fa4c-46d9-bc7d-a9ce8814e4e0" d="M27.05,13c0,.1-.07.17-.06.26s.1.22.08.34c-.07.67-.17,1.33-.23,2a9.68,9.68,0,0,1-.31,2,10.49,10.49,0,0,0,2.32-.6l.22-.09a15.74,15.74,0,0,0,.41-3c-.77-.64-2.19-1.64-2.21-1.65A.81.81,0,0,0,27.05,13Z"/><path class="b1674eed-4818-4750-9ee2-0ab8bd7bd56a" d="M18.61,10.1c-.19-.08-.3-.27-.48-.37s-.25,0-.36-.1l-.2-.12a.64.64,0,0,0-.67-.13l-.06,0c0,.61-.1,1.22-.08,1.83a3.3,3.3,0,0,0,.14,1,.56.56,0,0,1,.27.2s0,.07.08.07c.64.17,1.3.2,1.94.34h0c.16-.07.34,0,.49-.15a.92.92,0,0,0,.26-.36c.13-.34-.05-.68,0-1a5.27,5.27,0,0,1,.14-.69s0-.09,0-.12c-.42,0-.74-.37-1.15-.44C18.81,10.07,18.71,10.14,18.61,10.1Z"/><path class="ba148858-627b-4054-ade8-e51dec3a07f4" d="M16.43,9.37V9.19a.76.76,0,0,1-.21,0,9.77,9.77,0,0,1-1.4.67l-.65.28s-.56,1.2-.65,1.46a1.34,1.34,0,0,0-.1.78,6.3,6.3,0,0,0,1.72-.13,1.57,1.57,0,0,1,.93,0,.24.24,0,0,1,.27-.09,2.3,2.3,0,0,0,.28-1C16.64,10.56,16.44,10,16.43,9.37Z"/><path class="b8d54890-8d8d-42c9-aa7b-fc33aff5f83c" d="M9.54,10.53a12.5,12.5,0,0,1,1.27-1.81.62.62,0,0,0,.31-.3.2.2,0,0,0,0-.08,12.14,12.14,0,0,0-1.88-.51c-.81.45-1.66.83-2.47,1.27.11.26.33.44.46.69-.22.27.1,1.58.32,2.34l.28.42a.41.41,0,0,0,.21.1.43.43,0,0,0,.15-.08c.12-.14.2-.31.32-.43A8.21,8.21,0,0,0,9.66,11,.62.62,0,0,0,9.54,10.53Z"/><path class="e2de73de-0f25-491d-b10c-e35df3737674" d="M6.56,11.9a1.85,1.85,0,0,0,.33-1.31A2.3,2.3,0,0,1,7,9.84a1.31,1.31,0,0,1-.28-.15c0-.28.06-.57,0-.86a.43.43,0,0,0,0-.11,9.43,9.43,0,0,1-2.14,0,9,9,0,0,0-1.51,1,6.17,6.17,0,0,0,.79.66L5.71,11.7A1.1,1.1,0,0,0,6.56,11.9Z"/><path class="b9dc3187-7aaa-45e4-b6f6-3006718f4b77" d="M27.26,17.63c-.21.16-.34.31-.21.91a2.16,2.16,0,0,1,.65.45s0,.07.05.08l.46.19A8.83,8.83,0,0,0,29,17.1,13.69,13.69,0,0,0,27.26,17.63Z"/><path class="b3111019-8e70-4b01-a99e-2a582b3ece96" d="M19.65,14.47c0-.09,0-.09,0-.39a5.56,5.56,0,0,1-.08-.7c0-.11,0-.2-1.45-.56l-.91-.21c-.18,0-.35.07-.52.05a4.46,4.46,0,0,0-.34.42,17.28,17.28,0,0,0,.31,2.59h0a1.4,1.4,0,0,1,.68-.07c.19,0,.35-.11.53-.13l.71-.07a2.78,2.78,0,0,0,1.13-.2c.22-.17.09-.39,0-.52S19.64,14.51,19.65,14.47Z"/><path class="a06a0a47-bbdc-49f7-bc73-73bed37870dc" d="M14.48,14.77l.6-.33c.48-.26.7-.35.86-.33.15-.41.22-.85.39-1.25a1.11,1.11,0,0,1,.09-.19A.63.63,0,0,0,16,12.4c-.15,0-.28.07-.42.08s-.4-.06-.6-.05h-.17l-.34,0c-.12,0-.28,0-.4,0s-.47.08-.71.1a3.42,3.42,0,0,0-.26.86c-.31,1.83-.31,1.83-.25,2.17A7.13,7.13,0,0,0,14,15c.17-1,.23-1.8.23-1.8S14.32,13.86,14.48,14.77Z"/><path class="e5584dd2-a549-42fa-96c6-4751c7865501" d="M12.43,11.92a8,8,0,0,0-2.73-.11s-.33,2.17-.27,2.3a.71.71,0,0,1-.11.54c.52.66,1.06.62,3.3.44.14-.94.28-1.88.43-2.82,0,0,0-.13,0-.18s-.23-.06-.34-.09a9.07,9.07,0,0,0-.12,1C12.56,12.59,12.5,12.25,12.43,11.92Z"/><path class="e2e0a5ad-079a-4320-ad8d-30b429df1665" d="M4.82,12.19s.43-.32.46-.48-.17-.2-.36-.26a1,1,0,0,1-.39-.18c-.58-.43-1.09-.94-1.66-1.38l-.28.3A9.86,9.86,0,0,0,1.83,14l2.7-1.64Z"/><path class="e1c10016-7f2d-4f5d-968b-e1915879c19f" d="M6.43,14.25s0,.22-.14.21A1.11,1.11,0,0,0,6,15a10.64,10.64,0,0,0,.12,1.12,1,1,0,0,1-.07.43c0,.05-.07.1-.07.15v0a.21.21,0,0,0,0,.16c.06.07.2,0,.29,0,.29-.06.56-.1.8-.13A19,19,0,0,0,7.9,13.1,9.39,9.39,0,0,0,6.43,14.25Z"/><path class="e1c10016-7f2d-4f5d-968b-e1915879c19f" d="M8.51,16.47A.87.87,0,0,0,9,15.85a12.75,12.75,0,0,0,.4-3.54s0-.1,0-.15a16.59,16.59,0,0,0-1.41.92,28.2,28.2,0,0,0,.5,3.45Z"/><path class="b28105c1-6b89-4328-8aef-f8cbd22f4522" d="M5.78,16.05a1.61,1.61,0,0,0-.16-.4l-.29.1a3.22,3.22,0,0,0-1.14.84,1.15,1.15,0,0,1-.14.17c-.29.2-.64.28-.92.48s-.46.36-.46.36a1.52,1.52,0,0,0,0,.88,4.49,4.49,0,0,1,1.21.78,14.43,14.43,0,0,0,1.2.85,4.7,4.7,0,0,0,1-1.17A10.87,10.87,0,0,0,5.78,16.05Z"/><path class="a0eeefa3-2fdf-4be3-a698-67d2cb30ef88" d="M19.31,18.35v0s0,0-3.5.08a1.64,1.64,0,0,0-.39.06c.48,1.27,1.12,2.27,2,2.27a2.31,2.31,0,0,0,1.16-.31c0-.15.49-1.46.67-1.85A1.51,1.51,0,0,0,19.31,18.35Z"/><path class="b6d9a16e-2e24-4e0d-aee8-b6c04ece6e9d" d="M7.1,11.89a5.59,5.59,0,0,0-.57.22.89.89,0,0,1-.29.07c-.23-.09-.51-.09-1.25.19,0,0-2,1.09-2.15,1.17.11.22.11.22.11.24.94.29,1.84.69,2.77,1,.68-.6,1.24-1.31,1.93-1.9l.13-.12a4.81,4.81,0,0,0-.61-.88Z"/><path class="b247657b-3a2d-43a4-b644-5d5c8a9189ce" d="M19.49,15.58c-.14-.08-.14-.08-.71-.05a5.28,5.28,0,0,0-1.48.25c-.08,0-.18,0-.57,0-.32.61-.19,1.33-.41,2,.1.13.1.13.12.51a7.29,7.29,0,0,1,.94-.07,6.25,6.25,0,0,0,2-.24,12.45,12.45,0,0,0,.34-2.2s0-.09,0-.13A.15.15,0,0,1,19.49,15.58Z"/><path class="f6368026-d246-45f7-bfc8-be5bc6e7a356" d="M26.8,18.42c-.23-.12-.24-.49-.57-.51a1.49,1.49,0,0,0-.43,0l-.34,0-2,.1A8.55,8.55,0,0,0,24.88,20a6.7,6.7,0,0,0,1.75-1.39C26.69,18.54,26.75,18.47,26.8,18.42Z"/><path class="b0eb3997-908b-4c22-8fd9-bc52a75cf6bf" d="M27.5,19.16c-.05-.31-.37-.33-.54-.51a11.31,11.31,0,0,0-1.86,1.52,2.1,2.1,0,0,0,1.27.56,2.13,2.13,0,0,0,1.7-1.23A1.13,1.13,0,0,0,27.5,19.16Z"/><path class="b8922c25-39e4-4530-ba3c-43c32151472c" d="M19.68,17.92c.12,0,.12,0-.13,1.12a2.21,2.21,0,0,1-.28.68l.08,0a7.56,7.56,0,0,0,1.31-2.36,3.45,3.45,0,0,0-.71-.15A3.11,3.11,0,0,0,19.68,17.92Z"/><path class="bf557598-3280-4b7d-b68d-27588fb4986d" d="M10.31,18.56a.49.49,0,0,1,.24-.06c.2,0,.23,0,.26.06.61-.14,1.25-.07,1.85-.27.4-.13.44-.23.37-.46s-.37-.54-.51-.85-.12-.49-.21-.73a4.45,4.45,0,0,1-.15-.42c-.92-.23-1.87-.32-2.8-.51a.85.85,0,0,0-.22.77s0,.06,0,.09-.07.21-.09.3a1.13,1.13,0,0,0,0,.15,4.64,4.64,0,0,0,0,.91,5.21,5.21,0,0,1,0,.95l.06.15A1.82,1.82,0,0,0,10.31,18.56Z"/><path class="a6503543-b277-4d49-b95c-8ff3cb4b18d0" d="M3.07,17.05a5.18,5.18,0,0,0,1.36-1s.06-.09.09-.11c.19-.13.41-.21.59-.35a2.14,2.14,0,0,0,.19-.13,1.28,1.28,0,0,0,.29-.28L5.68,15c-.21-.13-1.34-.51-1.56-.59a9.73,9.73,0,0,1-1.49-.63l-.8.48a14.69,14.69,0,0,0,.36,3A2.26,2.26,0,0,0,3.07,17.05Z"/><path class="fb41a445-1736-471d-ae73-0ebedde079c8" d="M6.55,17c0,.25-.14.84-.24,1.53A10.5,10.5,0,0,0,7,16.94,2,2,0,0,0,6.55,17Z"/><path class="fb41a445-1736-471d-ae73-0ebedde079c8" d="M8.83,16.77l-.34,0c.07.29.14.57.22.85A1.91,1.91,0,0,0,8.92,17,.65.65,0,0,0,8.83,16.77Z"/><path class="b659d9b7-5067-4899-9430-df66fbd1845d" d="M12.88,18.87l0-.19a3,3,0,0,0-1.49-.13c-.27,0-.52.11-.78.14a5,5,0,0,0-1.26.25L9.2,19c.45,1,1.05,1.73,1.84,1.73s1.38-.68,1.84-1.64Z"/><path class="b7960b7a-dc72-48ed-95c8-251dbd5b57b2" d="M3.49,19.34c-.14-.06-.25.1-.39.05l0,0-.21.21c.27.73.49,1.17.49,1.17a2.7,2.7,0,0,0,1.57-.51l-.49-.29A9.1,9.1,0,0,0,3.49,19.34Z"/><path class="b71560f7-9800-4391-87e9-515e70dc2073" d="M24.32,6.79l0,.07a.35.35,0,0,0,.34-.15c-.22-.15-.44-.3-.66-.43a.83.83,0,0,1,.08.12C24.19,6.51,24.26,6.67,24.32,6.79Z"/><path class="eba269dd-8320-49c0-bf53-0f6b2a0b2530" d="M23.33,8.21a.58.58,0,0,1,0-.14V8c-.14,0-3.94-.21-4-.21a1.4,1.4,0,0,0-.53.07h0a3.62,3.62,0,0,1-.77.56,2.45,2.45,0,0,1-.21,1,20.35,20.35,0,0,0,3,1.22,2.2,2.2,0,0,0,.5-.25c.11-.11.1-.27.19-.38a1.64,1.64,0,0,1,.25-.21A8.24,8.24,0,0,0,23.33,8.21Z"/><path class="fd26e119-4994-4be7-9426-6420c4f19046" d="M23.74,8c.14,0,.39-.57.41-1a.21.21,0,0,0,0-.14.83.83,0,0,1-.3-.53A.91.91,0,0,1,23.46,6a7.93,7.93,0,0,0-3.55-1c-.22.93-.29,1.88-.46,2.82C20.54,7.84,23.73,8,23.74,8Z"/><path class="e62bed78-851d-4959-9cb1-3a686220c06d" d="M18.74,7.58a3,3,0,0,0,.56-.15c.19-.82-.05-1.7.41-2.47,0,0,0,0,0,0A5.37,5.37,0,0,0,18,5.18a7.25,7.25,0,0,0-2.31,1.3c.85.33,1.85.3,2.53,1C18.4,7.51,18.56,7.6,18.74,7.58Z"/><path class="a77afa7d-92f5-40a7-b151-8d632529fa89" d="M9.78,11.16a21.06,21.06,0,0,0,2.64.7,16.93,16.93,0,0,0-1.06-3.43h-.14A5.56,5.56,0,0,0,9.78,11.16Z"/><path class="a77afa7d-92f5-40a7-b151-8d632529fa89" d="M13,12a11.05,11.05,0,0,0,1-2l.08-.13a1.64,1.64,0,0,0-.61-.33,11.06,11.06,0,0,0-.72,2.4Z"/><path class="bfae27d3-703c-42da-af59-242d04f442ff" d="M14.52,9.81c1.65-.73,1.78-.79,2.92-.71,0,0,.07,0,.09,0s0-.06.06-.09a1.51,1.51,0,0,1,.31-.56c.11-.15.29-.22.4-.37l0,0,.08-.13a0,0,0,0,1,0,0,15.92,15.92,0,0,0-2.9-1.24,8.09,8.09,0,0,0-1.93,2.67c.11.06.29.14.58.26A2.29,2.29,0,0,0,14.52,9.81Z"/><path class="b38db5c5-e510-43ee-822a-2cd656ae353d" d="M27.06,11.43a2.28,2.28,0,0,1,.5.52c.16.2.41.32.59.52s.06.24.16.33a1.35,1.35,0,0,0,.34.19.06.06,0,0,1,.07,0l.12-.1s0-.11.06-.14a4.71,4.71,0,0,1,.42-.36,8.93,8.93,0,0,0-1.59-2.81c-.12.48-.22.95-.22,1C27.23,10.73,27.18,10.9,27.06,11.43Z"/><path class="e62bed78-851d-4959-9cb1-3a686220c06d" d="M21.83,13A6.58,6.58,0,0,0,22,14.24a5.43,5.43,0,0,0,.88-.2c.09-.08.08-.22.14-.32s.09-.1.13-.14a10.49,10.49,0,0,0,.93-1.33c.23-.38.45-.73.66-1l.12-.17a.42.42,0,0,0-.33-.21,7.09,7.09,0,0,0-.8,0,5.34,5.34,0,0,1-1.11-.35,1.21,1.21,0,0,1-1.08-.13c-1,.74-1,.79-1.1.91-.21.36.05.77-.13,1.13a1.25,1.25,0,0,0-.08.22c-.07.44-.19.87-.24,1.31a.6.6,0,0,0,0,.4.31.31,0,0,0,.31.14,8.49,8.49,0,0,0,1.18-.1C21.78,12.8,21.83,11.85,21.83,13Z"/><path class="f5875d3e-4132-4a93-9fc8-e149edec0fd3" d="M25.41,10.69c.5.09.95.34,1.43.46.16-.53.61-.94.62-1.52,0-.4-2.82-1.15-3.39-1.3a4.1,4.1,0,0,1-.49-.14c-.26.26-.26.26-2,1.91,0,.14.05.22.28.27s.6,0,.9.05.65.2,1,.25a4.47,4.47,0,0,0,.73,0A3.58,3.58,0,0,1,25.41,10.69Z"/><path class="f6942a06-ec0c-42a5-8952-1efcbe34fe65" d="M23.54,17.41c-.22-.26-.27-.93-.16-2,0-.22.09-.44.1-.66a.93.93,0,0,0,0-.24v-.05a.43.43,0,0,0-.35-.13,4.66,4.66,0,0,0-.73.13c-.08,0-.13-.07-.2-.06a.29.29,0,0,0-.16.07,13.24,13.24,0,0,0,1.3,3.38h.07C23.45,17.71,23.48,17.55,23.54,17.41Z"/><path class="f6942a06-ec0c-42a5-8952-1efcbe34fe65" d="M21.17,14.53a3.85,3.85,0,0,0-.71,0,1.15,1.15,0,0,1-.43.32,14.86,14.86,0,0,0-.18,2,5.22,5.22,0,0,0,.9.27,19.54,19.54,0,0,0,.7-2.63Z"/><path class="a8b929cc-e591-415f-b371-b05ee131bc7d" d="M26.72,14.74a1,1,0,0,0-.12-.29,12.71,12.71,0,0,1-1.5-.24A4.34,4.34,0,0,0,23.33,14a3.91,3.91,0,0,1,.39,1.38c0,.39,0,.78,0,1.17,0,.14,0,.27,0,.41s.07.41.07.62c0,0,0,.1,0,.14a5.33,5.33,0,0,0,1.34,0c.81,0,1,0,1.28,0A8.05,8.05,0,0,0,26.72,14.74Z"/><path class="b9d4fc38-8461-42c1-81b4-56c5731777e6" d="M23.69,13.77c.52.2,2.59.68,3.06.44.12-.05.17-.32.22-1.28a5.34,5.34,0,0,1,.11-1.08,1.39,1.39,0,0,0,.06-.19,1.68,1.68,0,0,0-1-.56,3.24,3.24,0,0,1-1-.33.83.83,0,0,0-.32.3c-.14.21-.19.46-.33.68-.3.46-.65.89-1,1.35a4.67,4.67,0,0,0-.35.62A.59.59,0,0,1,23.69,13.77Z"/><path class="a59ea50d-e989-4f42-a1e0-7e0aca5e5f30" d="M4.16,7.73A8.52,8.52,0,0,0,2.72,9.88c.53-.45,1-.93,1.6-1.35C4.25,8.27,4.21,8,4.16,7.73Z"/><path class="a4928f3b-5b27-401d-871a-7e4c93457071" d="M15.66,18.31H16c.2-.49.09-1,.25-1.53,0-.05-.12-.07-.12-.14a.66.66,0,0,1,0-.15,2.28,2.28,0,0,0,.06-.72,13.57,13.57,0,0,1-.14-1.43c0-.06,0-.07-.21-.12a3.67,3.67,0,0,1-1.37.6v0a21.8,21.8,0,0,0,.87,3.45Z"/><path class="a4928f3b-5b27-401d-871a-7e4c93457071" d="M12.62,16.2c-.15.42.69,1.44.7,1.44a.83.83,0,0,0-.1.64A18.47,18.47,0,0,0,14,15.22C13.43,15.43,12.79,15.71,12.62,16.2Z"/></svg>