<svg xmlns="http://www.w3.org/2000/svg" viewBox="0 0 31 31"><rect class="cls-2" width="31" height="31" rx="5"/><path class="cls-1" d="M29.06,25.91V5.09a3,3,0,0,0-3-3H5.17a3,3,0,0,0-3,3V25.91a3,3,0,0,0,3,3h20.9A3,3,0,0,0,29.06,25.91Z"/><polygon class="cls-2" points="11.26 13.28 14.98 17.75 20.2 11.04 26.92 19.96 6.03 19.96 11.26 13.28"/><path class="cls-2" d="M9.48,10.79H5.25a1.53,1.53,0,0,1-1.56-1.5V5.21a1.54,1.54,0,0,1,1.56-1.5H9.48A1.54,1.54,0,0,1,11,5.21V9.29A1.53,1.53,0,0,1,9.48,10.79ZM5.25,4.56a.67.67,0,0,0-.68.65V9.29a.67.67,0,0,0,.68.65H9.48a.66.66,0,0,0,.68-.65V5.21a.66.66,0,0,0-.68-.65Z"/><path class="cls-2" d="M26.24,10.24H22a1.53,1.53,0,0,1-1.56-1.5V4.67A1.53,1.53,0,0,1,22,3.17h4.23a1.53,1.53,0,0,1,1.56,1.5V8.74A1.53,1.53,0,0,1,26.24,10.24ZM22,4a.67.67,0,0,0-.68.66V8.74A.67.67,0,0,0,22,9.4h4.23a.68.68,0,0,0,.68-.66V4.67A.68.68,0,0,0,26.24,4Z"/><rect class="cls-2" x="23.63" y="20.76" width="0.58" height="9.03" transform="translate(22.96 60.05) rotate(-135)"/><rect class="cls-2" x="7.18" y="1.96" width="0.58" height="10.39" transform="translate(7.68 17.49) rotate(-135)"/><rect class="cls-2" x="23.63" y="1.51" width="0.58" height="10.39" transform="translate(36.09 28.36) rotate(-135)"/><path class="cls-2" d="M25.75,27.1H21.24a1.19,1.19,0,0,1-1.19-1.19V24.63a1.19,1.19,0,0,1,1.19-1.19h4.51a1.19,1.19,0,0,1,1.19,1.19v1.28A1.19,1.19,0,0,1,25.75,27.1Zm-4.51-2.86a.39.39,0,0,0-.39.39v1.28a.39.39,0,0,0,.39.39h4.51a.38.38,0,0,0,.39-.39V24.63a.38.38,0,0,0-.39-.39Z"/></svg>