<svg xmlns="http://www.w3.org/2000/svg" viewBox="0 0 31 31"><rect id="Rectangle_8" data-name="Rectangle 8" class="cls-1" x="-0.08" y="0.18" width="31" height="31" rx="5"/><path class="cls-2" d="M15.42,30A14,14,0,1,1,29.37,16,14,14,0,0,1,15.42,30Zm0-25.9a12,12,0,1,0,12,12A12,12,0,0,0,15.42,4.05Z"/><rect class="cls-2" x="14.42" y="3.05" width="2" height="25.9"/><rect class="cls-2" x="2.47" y="15.29" width="25.9" height="2"/><rect class="cls-2" x="14.47" y="-1.85" width="2" height="21.9" transform="translate(6.26 24.5) rotate(-89.61)"/><rect class="cls-2" x="14.41" y="12.81" width="2" height="21.22" transform="translate(-8.04 38.78) rotate(-89.9)"/><path class="cls-2" d="M13.07,29.49A21.1,21.1,0,0,1,8,15.44,16.64,16.64,0,0,1,13.88,2.89l1.28,1.54A14.65,14.65,0,0,0,10,15.49,19.15,19.15,0,0,0,14.6,28.21Z"/><path class="cls-2" d="M17.89,29.23,16.35,28a19,19,0,0,0,4.59-12.71A14.64,14.64,0,0,0,15.8,4.17l1.28-1.53a16.61,16.61,0,0,1,5.86,12.54A21.09,21.09,0,0,1,17.89,29.23Z"/></svg>