<svg xmlns="http://www.w3.org/2000/svg" viewBox="0 0 31 31"><rect class="cls-1" width="31" height="31" rx="5"/><g><path class="cls-2" d="M13.11,16.72H9a.89.89,0,0,0-.9.89.86.86,0,0,0,.26.63L9.54,19.4,5.85,23.09a.6.6,0,0,0,0,.84l.94.95a.6.6,0,0,0,.84,0l3.7-3.7,1.15,1.23A.89.89,0,0,0,14,21.77V17.61a.89.89,0,0,0-.89-.89Zm4.17-2.38h4.16a.9.9,0,0,0,.63-1.53l-1.22-1.15L24.54,8a.6.6,0,0,0,0-.84l-.95-1a.6.6,0,0,0-.84,0l-3.69,3.7L17.9,8.65a.89.89,0,0,0-1.26,0,.92.92,0,0,0-.26.63v4.17a.89.89,0,0,0,.89.89Zm3.57,5.06,1.22-1.16a.89.89,0,0,0,0-1.26.88.88,0,0,0-.63-.26H17.28a.89.89,0,0,0-.9.89h0v4.17a.9.9,0,0,0,1.53.63l1.15-1.23,3.69,3.7a.6.6,0,0,0,.84,0l.95-.95a.6.6,0,0,0,0-.84ZM12.48,8.65,11.33,9.88l-3.7-3.7a.6.6,0,0,0-.84,0l-.94,1a.6.6,0,0,0,0,.84l3.69,3.69L8.31,12.82a.89.89,0,0,0,0,1.26.94.94,0,0,0,.63.26h4.17a.89.89,0,0,0,.89-.89h0V9.28a.89.89,0,0,0-.89-.89A.88.88,0,0,0,12.48,8.65Z"/></g></svg>