<svg xmlns="http://www.w3.org/2000/svg" viewBox="0 0 31 31"><rect class="cls-1" width="31" height="31" rx="5"/><path class="cls-2" d="M24.51,22.48v-14a2,2,0,0,0-2-2h-14a2,2,0,0,0-2,2v14a2,2,0,0,0,2,2h14A2,2,0,0,0,24.51,22.48ZM12,17l2.5,3,3.5-4.5,4.5,6h-14Z"/><rect class="cls-2" x="2.35" y="3.07" width="6.91" height="0.98"/><rect class="cls-2" x="-0.62" y="6.03" width="6.91" height="0.98" transform="translate(-3.69 9.36) rotate(-90)"/><rect class="cls-2" x="24.71" y="6.03" width="6.91" height="0.98" transform="translate(34.69 -21.64) rotate(90)"/><rect class="cls-2" x="21.75" y="3.07" width="6.91" height="0.98"/><rect class="cls-2" x="24.71" y="23.98" width="6.91" height="0.98" transform="translate(3.7 52.63) rotate(-90)"/><rect class="cls-2" x="21.75" y="26.94" width="6.91" height="0.98"/><rect class="cls-2" x="-0.62" y="23.98" width="6.91" height="0.98" transform="translate(-21.63 27.3) rotate(-90)"/><rect class="cls-2" x="2.35" y="26.94" width="6.91" height="0.98" transform="translate(11.6 54.86) rotate(-180)"/></svg>