<svg xmlns="http://www.w3.org/2000/svg" viewBox="0 0 31 31"><rect class="cls-1" width="31" height="31" rx="5"/><path class="cls-2" d="M6.84,15.24a1.66,1.66,0,0,1,2.27-.05L11,16.89a1,1,0,0,0,1.38.11l0,0c.22-.25.13-1,.07-1.48l-.94-7a1.22,1.22,0,0,1,1.09-1.32h0a1.27,1.27,0,0,1,1.4,1l1,5.52c0,.14.17.16.18,0l.35-7.18A1.27,1.27,0,0,1,17,5.36,1.26,1.26,0,0,1,18.1,6.5l0,7.24c0,.08.07.11.09,0L19.33,8.1a1.29,1.29,0,0,1,1.46-1,1.2,1.2,0,0,1,1,1.35h0l-1,6.61c0,.12,0,.19.1,0l1.48-3.63a1.31,1.31,0,0,1,1.6-.73,1.16,1.16,0,0,1,.79,1.44.14.14,0,0,0,0,.06l-2.6,7.76c0,.05,0,.09-.05.13v0h0a5.51,5.51,0,0,1-5.26,3.49,8.07,8.07,0,0,1-4.46-1.38h0c-1.34-.74-5.65-5-5.65-5a1.38,1.38,0,0,1-.07-1.95Z"/></svg>