<svg xmlns="http://www.w3.org/2000/svg" viewBox="0 0 31 31"><rect class="cls-1" width="31" height="31" rx="5"/><g><g><path class="cls-2" d="M6,21H17.54v1.36H6Z"/><path class="cls-2" d="M21.63,21H25v1.36H21.63Z"/><path class="cls-2" d="M21,23.65A1.37,1.37,0,0,1,19.59,25h0a1.39,1.39,0,0,1-1.37-1.39h0v-4a1.37,1.37,0,0,1,1.37-1.38h0A1.37,1.37,0,0,1,21,19.61h0Z"/></g><g><path class="cls-2" d="M6,14.82H9.37v1.36H6Z"/><path class="cls-2" d="M13.46,14.82H25v1.36H13.46Z"/><path class="cls-2" d="M12.77,17.52a1.36,1.36,0,0,1-1.36,1.38h0a1.36,1.36,0,0,1-1.36-1.38h0v-4a1.37,1.37,0,0,1,1.36-1.39h0a1.39,1.39,0,0,1,1.37,1.39h0Z"/></g><g><path class="cls-2" d="M6,8.69H17.54v1.36H6Z"/><path class="cls-2" d="M21.63,8.69H25v1.36H21.63Z"/><path class="cls-2" d="M21,11.39a1.36,1.36,0,0,1-1.36,1.38h0a1.37,1.37,0,0,1-1.37-1.38h0v-4A1.39,1.39,0,0,1,19.59,6h0A1.37,1.37,0,0,1,21,7.34h0Z"/></g></g></svg>