<svg xmlns="http://www.w3.org/2000/svg" viewBox="0 0 31 31"><rect class="cls-1" width="31" height="31" rx="5"/><path class="cls-2" d="M25,8.25c-2,.1-6.09.47-8.59,1.8a.47.47,0,0,0-.27.43V22.25a.58.58,0,0,0,.67.5.6.6,0,0,0,.19-.06,25.4,25.4,0,0,1,8.14-1.52,1.09,1.09,0,0,0,1.12-1V9.25a1.12,1.12,0,0,0-1.22-1Zm-10.33,1.8C12.13,8.72,8.08,8.35,6,8.25a1.11,1.11,0,0,0-1.25,1v11a1.09,1.09,0,0,0,1.12,1A25.4,25.4,0,0,1,14,22.69a.59.59,0,0,0,.8-.25.42.42,0,0,0,.06-.19V10.47A.46.46,0,0,0,14.63,10.05Z"/></svg>