<svg xmlns="http://www.w3.org/2000/svg" viewBox="0 0 31 31"><rect class="cls-1" width="31" height="31" rx="5"/><path class="cls-2" d="M6.1,9.93V23.67a2,2,0,0,0,2,2h15.7a2,2,0,0,0,2-2V10l-2.94,0-2,3H17.87l2-3h-2l-2,3H13l2-3H13l-2,3H8.06l2-3Z"/><rect class="cls-2" x="9.78" y="9.93" width="13.55" height="0.23"/><path class="cls-2" d="M20.55,5.34,22.76,8.1l-2.93.25L17.62,5.59l-2,.17,2.21,2.77-2.94.25L12.73,6l-2,.17L13,9l-2.94.26L7.84,6.45l-1,.08c-1.07.1-1,1.18-.87,2.26L6.1,9.93l1.25-.12L23.49,8.32l2.25-.17-.2-2.24a.94.94,0,0,0-1-.85Z"/><polygon class="cls-1" points="15.1 21.48 13.87 24.18 12.64 21.48 9.94 20.25 12.64 19.02 13.87 16.32 15.1 19.02 17.8 20.25 15.1 21.48"/><polygon class="cls-1" points="20.68 18.23 19.76 20.25 18.84 18.23 16.82 17.3 18.84 16.38 19.76 14.36 20.69 16.38 22.71 17.3 20.68 18.23"/><rect class="cls-2" x="7.72" y="5.86" width="13.55" height="0.23" transform="translate(-0.46 1.26) rotate(-4.91)"/></svg>