<svg xmlns="http://www.w3.org/2000/svg" viewBox="0 0 31 31"><rect class="cls-1" width="31" height="31" rx="5"/><path class="cls-2" d="M24.12,16.91a8.3,8.3,0,0,0-4.3-4.42,12.16,12.16,0,0,0-4.12-1l-.8-.05v-.22c0-1,0-2,0-3a1,1,0,0,0-.11-.46.6.6,0,0,0-.94,0L6.4,13.81a3,3,0,0,0-.41.46v.3a3.16,3.16,0,0,0,.38.44Q9,17.22,11.66,19.39l2.18,1.82a.62.62,0,0,0,.58.17.61.61,0,0,0,.46-.67c0-1,0-2.07,0-3.1V17.4h.2c.76.06,1.52.08,2.28.18A9.1,9.1,0,0,1,21,18.81a6.05,6.05,0,0,1,2.59,3,11.75,11.75,0,0,1,.32,1.2.52.52,0,0,0,.59.45.58.58,0,0,0,.48-.56c0-.2,0-.39.05-.59A12.15,12.15,0,0,0,24.12,16.91Z"/></svg>