<svg xmlns="http://www.w3.org/2000/svg" viewBox="0 0 31 31"><rect class="cls-1" width="31" height="31" rx="5"/><g><path class="cls-2" d="M14.47,22.85a8.16,8.16,0,1,1,8.16-8.16A8.17,8.17,0,0,1,14.47,22.85ZM14.47,9a5.66,5.66,0,1,0,5.66,5.66A5.67,5.67,0,0,0,14.47,9Z"/><path class="cls-2" d="M23.11,24.58a1.25,1.25,0,0,1-.89-.37l-3.76-3.75a1.27,1.27,0,0,1,0-1.77,1.25,1.25,0,0,1,1.77,0L24,22.45a1.24,1.24,0,0,1,0,1.76A1.21,1.21,0,0,1,23.11,24.58Z"/><path class="cls-2" d="M14.47,18.53a1.25,1.25,0,0,1-1.25-1.25V12.1a1.25,1.25,0,0,1,2.5,0v5.18A1.25,1.25,0,0,1,14.47,18.53Z"/><path class="cls-2" d="M17.06,15.94H11.88a1.25,1.25,0,0,1,0-2.5h5.18a1.25,1.25,0,0,1,0,2.5Z"/></g></svg>