<svg xmlns="http://www.w3.org/2000/svg" viewBox="0 0 31 31"><rect class="cls-1" width="31" height="31" rx="5"/><path class="cls-2" d="M19.07,26.59a8.16,8.16,0,1,1,8.16-8.16A8.17,8.17,0,0,1,19.07,26.59Zm0-13.82a5.66,5.66,0,1,0,5.66,5.66A5.67,5.67,0,0,0,19.07,12.77Z"/><path class="cls-2" d="M27.71,28.32a1.21,1.21,0,0,1-.88-.37l-3.76-3.76a1.25,1.25,0,0,1,1.77-1.76l3.75,3.75a1.25,1.25,0,0,1,0,1.77A1.21,1.21,0,0,1,27.71,28.32Z"/><path class="cls-2" d="M19.62,20.19H4.22a2,2,0,0,1-2-2V4.07a2,2,0,0,1,2-2h15.4a2,2,0,0,1,2,2v14.1A2,2,0,0,1,19.62,20.19ZM4.22,3.05a1,1,0,0,0-1,1v14.1a1,1,0,0,0,1,1h15.4a1,1,0,0,0,1-1V4.07a1,1,0,0,0-1-1Z"/><polygon class="cls-2" points="7.51 5.82 4.53 9.62 10.22 9.62 7.51 5.82"/><polyline class="cls-2" points="8.05 9.62 15 9.62 11.47 4.94"/></svg>