<svg xmlns="http://www.w3.org/2000/svg" viewBox="0 0 31 31"><rect class="cls-1" width="31" height="31" rx="5"/><g><path class="cls-2" d="M14.64,22.8a8.16,8.16,0,1,1,8.16-8.16A8.17,8.17,0,0,1,14.64,22.8ZM14.64,9a5.66,5.66,0,1,0,5.66,5.66A5.66,5.66,0,0,0,14.64,9Z"/><path class="cls-2" d="M23.27,24.53a1.29,1.29,0,0,1-.88-.37L18.63,20.4a1.25,1.25,0,0,1,1.77-1.77l3.76,3.76a1.25,1.25,0,0,1,0,1.77A1.29,1.29,0,0,1,23.27,24.53Z"/><path class="cls-2" d="M17.23,15.89H12a1.25,1.25,0,0,1,0-2.5h5.19a1.25,1.25,0,0,1,0,2.5Z"/></g></svg>